<svg class="h80 w80" xmlns="http://www.w3.org/2000/svg" viewBox="-80 0 512 512.00014">
    <path d="m177.007812.0078125c-96.949218-.8164065-177.007812 78.5078125-177.007812 175.5585935 0 63.449219 34.414062 122.152344 89.800781 153.21875 13.46875 7.542969 22.382813 20.96875 24.144531 35.878906-6.976562 1.375-12.222656 7.511719-12.222656 14.882813v70.90625c0 8.371094 6.78125 15.164063 15.164063 15.164063h4.253906v11.566406c0 19.199218 15.621094 34.816406 34.816406 34.816406h39.207031c19.195313 0 34.816407-15.617188 34.816407-34.816406v-11.566406h4.257812c8.378907 0 15.164063-6.792969 15.164063-15.164063v-70.90625c0-7.371094-5.25-13.507813-12.222656-14.882813 1.738281-14.921874 10.554687-28.296874 23.867187-35.726562 55.5625-31.027344 90.074219-89.792969 90.074219-153.371094 0-96.414062-77.59375-174.765625-174.113282-175.5585935zm42.0625 394.7031255v40.578124h-87.019531c0-14.011718 0-25.945312 0-40.578124zm-28.34375-174.613282c0-13.433594 10.925782-24.371094 24.371094-24.371094h37.832032v2.464844c0 13.445313-10.9375 24.375-24.375 24.375h-37.828126zm-30.328124-71.136718h-37.832032c-13.433594 0-24.375-10.929688-24.375-24.375v-2.46875h37.832032c13.445312 0 24.375 10.941406 24.375 24.375zm39.253906 328.222656c0 2.476562-2.011719 4.488281-4.488282 4.488281h-39.207031c-2.476562 0-4.488281-2.011719-4.488281-4.488281v-11.566406h48.183594zm46.605468-174.734375c-22.828124 12.75-37.597656 36.113281-39.507812 61.933593h-16.078125c.082031-1.207031.042969-76.691406.054687-111.488281h37.828126c30.167968 0 54.703124-24.535156 54.703124-54.703125v-17.628906c0-8.371094-6.792968-15.164062-15.164062-15.164062h-52.996094c-8.753906 0-17.03125 2.0625-24.371094 5.742187 0-5.035156 0-18.363281 0-24.648437 0-30.15625-24.535156-54.703126-54.703124-54.703126h-52.996094c-8.367188 0-15.164063 6.792969-15.164063 15.164063v17.632813c0 30.164062 24.539063 54.703124 54.703125 54.703124h37.832032c0 196.371094-.03125 183.882813.050781 185.09375h-16.074219c-1.933594-25.769531-16.792969-49.183593-39.742188-62.054687-45.835937-25.707031-74.304687-74.273437-74.304687-126.761719 0-80.097656 66.257813-145.921875 146.4375-145.230468 79.417969.644531 144.027344 65.792968 144.027344 145.230468 0 52.589844-28.558594 101.214844-74.535157 126.882813zm0 0" style="fill: rgb(145, 220, 90);"></path>
</svg>